<svg xmlns="http://www.w3.org/2000/svg" viewBox="0 0 200.1 162.2"><defs><style>.a{fill:#2baae1;}</style></defs><title>twitte_logo_color</title><path class="a" d="M200,19.3a82,82,0,0,1-23.6,6.5,41.2,41.2,0,0,0,18-22.7,82.1,82.1,0,0,1-26.1,10A41.1,41.1,0,0,0,98.4,50.5a116.5,116.5,0,0,1-84.5-43A41.1,41.1,0,0,0,26.6,62.3,40.9,40.9,0,0,1,8,57.2v0.5A41.1,41.1,0,0,0,40.9,97.9a41.1,41.1,0,0,1-18.5.7,41.1,41.1,0,0,0,38.3,28.5,82.3,82.3,0,0,1-51,17.6,83.3,83.3,0,0,1-9.8-.6,116.1,116.1,0,0,0,62.9,18.4c75.5,0,116.7-62.5,116.7-116.7q0-2.7-.1-5.3A83.4,83.4,0,0,0,200,19.3Z" transform="translate(0.1 -0.3)"/></svg>